<?xml version="1.0" encoding="utf-8"?>
<!-- Generator: Adobe Illustrator 24.2.3, SVG Export Plug-In . SVG Version: 6.00 Build 0)  -->
<svg version="1.1" id="Calque_1" xmlns="http://www.w3.org/2000/svg" xmlns:xlink="http://www.w3.org/1999/xlink" x="0px" y="0px"
	 viewBox="0 0 10 13.1" style="enable-background:new 0 0 10 13.1;" xml:space="preserve">
<style type="text/css">
	.st0{fill:#FFFFFF;}
</style>
<g id="_002-google-plus" transform="translate(67.238) rotate(90)">
	<g id="Groupe_1282" transform="translate(0 57.194)">
		<g id="Groupe_1281" transform="translate(0 0)">
			<path id="Tracé_1203" class="st0" d="M10,4.5H5.4V6h2.9C7.7,7.8,5.8,8.8,4,8.2S1.3,5.8,1.8,4C2.4,2.3,4.3,1.3,6,1.8
				C6.5,2,7,2.3,7.4,2.7l1.1-1.2c-2-1.9-5.2-1.9-7.1,0.1s-1.9,5.2,0.1,7.1C2.4,9.5,3.7,10,5,10c2.4,0,4.5-1.7,5-4L10,4.5L10,4.5z"/>
			<path id="Tracé_1204" class="st0" d="M13.1,4.5h-1v-1h-0.8v1h-1v0.8h1v1h0.8v-1h1V4.5z"/>
		</g>
	</g>
</g>
</svg>
