<?xml version="1.0" encoding="utf-8"?>
<!-- Generator: Adobe Illustrator 24.2.3, SVG Export Plug-In . SVG Version: 6.00 Build 0)  -->
<svg version="1.1" id="Calque_1" xmlns="http://www.w3.org/2000/svg" xmlns:xlink="http://www.w3.org/1999/xlink" x="0px" y="0px"
	 viewBox="0 0 9.3 9.3" style="enable-background:new 0 0 9.3 9.3;" xml:space="preserve">
<style type="text/css">
	.st0{fill:#FFFFFF;stroke:#FFFFFF;stroke-width:0.4;}
</style>
<g id="instagram" transform="translate(0.2 0.2)">
	<g id="Groupe_1285">
		<g id="Groupe_1284">
			<path id="Tracé_1209" class="st0" d="M6.3,0H2.6C1.2,0,0,1.2,0,2.6v3.7c0,1.4,1.2,2.6,2.6,2.6h3.7c1.4,0,2.6-1.2,2.6-2.6V2.6
				C8.9,1.2,7.7,0,6.3,0z M8.2,6.3c0,1-0.8,1.9-1.9,1.9H2.6c-1,0-1.9-0.8-1.9-1.9V2.6c0-1,0.8-1.9,1.9-1.9h3.7c1,0,1.9,0.8,1.9,1.9
				V6.3z"/>
		</g>
	</g>
	<g id="Groupe_1287" transform="translate(2.045 2.045)">
		<g id="Groupe_1286">
			<path id="Tracé_1210" class="st0" d="M2.4,0C1.1,0,0,1.1,0,2.4s1.1,2.4,2.4,2.4c1.3,0,2.4-1.1,2.4-2.4l0,0C4.8,1.1,3.7,0,2.4,0z
				 M2.4,4.1c-0.9,0-1.7-0.8-1.7-1.7s0.8-1.7,1.7-1.7c0.9,0,1.7,0.8,1.7,1.7v0C4.1,3.3,3.3,4.1,2.4,4.1z"/>
		</g>
	</g>
	<g id="Groupe_1289" transform="translate(6.516 1.664)">
		<g id="Groupe_1288">
			<circle id="Ellipse_91" class="st0" cx="0.3" cy="0.3" r="0.3"/>
		</g>
	</g>
</g>
</svg>
