<?xml version="1.0" encoding="utf-8"?>
<!-- Generator: Adobe Illustrator 24.2.3, SVG Export Plug-In . SVG Version: 6.00 Build 0)  -->
<svg version="1.1" id="Calque_1" xmlns="http://www.w3.org/2000/svg" xmlns:xlink="http://www.w3.org/1999/xlink" x="0px" y="0px"
	 viewBox="0 0 14.8 11.7" style="enable-background:new 0 0 14.8 11.7;" xml:space="preserve">
<style type="text/css">
	.st0{fill:#FFFFFF;}
</style>
<g id="_001-twitter-logo-silhouette" transform="translate(-0.001 -57.441)">
	<g id="Groupe_1280" transform="translate(0.001 57.441)">
		<path id="Tracé_1202" class="st0" d="M14.8,1.4c-0.6,0.2-1.1,0.4-1.7,0.5c0.6-0.4,1.1-0.9,1.3-1.6c-0.6,0.3-1.2,0.6-1.9,0.7
			C11.9,0.3,11.1,0,10.2,0c-1.7,0-3,1.3-3,3c0,0.2,0,0.5,0.1,0.7C4.9,3.5,2.6,2.4,1,0.5C0.8,1,0.6,1.5,0.6,2c0,1,0.5,1.9,1.3,2.5
			C1.5,4.5,1,4.3,0.6,4.1v0c0,1.4,1,2.6,2.4,2.9C2.8,7.1,2.5,7.1,2.2,7.1c-0.2,0-0.4,0-0.6-0.1c0.4,1.2,1.5,2,2.8,2.1
			c-1.1,0.8-2.4,1.3-3.8,1.3c-0.2,0-0.5,0-0.7,0c1.4,0.9,3,1.3,4.6,1.3c4.7,0.1,8.5-3.6,8.6-8.3c0,0,0-0.1,0-0.1l0-0.4
			C13.9,2.5,14.4,2,14.8,1.4z"/>
	</g>
</g>
</svg>
